<svg width="81" height="81" viewBox="0 0 81 81" fill="none" xmlns="http://www.w3.org/2000/svg"><path d="M40.5 12.5C25.5 12.5 13 25 13 40C13 55 25.5 67.5 40.5 67.5C55.5 67.5 68 55 68 40C68 25 55.5 12.5 40.5 12.5ZM40.5 62.5C28.3 62.5 18.5 52.7 18.5 40.5C18.5 28.3 28.3 18.5 40.5 18.5C52.7 18.5 62.5 28.3 62.5 40.5C62.5 52.7 52.7 62.5 40.5 62.5Z" fill="currentColor"/><path d="M45.5 30.5H35.5V50.5H45.5V30.5ZM42.5 47.5H38.5V33.5H42.5V47.5Z" fill="currentColor"/><path d="M40.5 25.5C42.7091 25.5 44.5 23.7091 44.5 21.5C44.5 19.2909 42.7091 17.5 40.5 17.5C38.2909 17.5 36.5 19.2909 36.5 21.5C36.5 23.7091 38.2909 25.5 40.5 25.5Z" fill="currentColor"/></svg>