<svg width="81" height="81" viewBox="0 0 81 81" fill="none" xmlns="http://www.w3.org/2000/svg"><path d="M40.5 12.5C25.5 12.5 13 25 13 40C13 55 25.5 67.5 40.5 67.5C55.5 67.5 68 55 68 40C68 25 55.5 12.5 40.5 12.5ZM40.5 62.5C28.3 62.5 18.5 52.7 18.5 40.5C18.5 28.3 28.3 18.5 40.5 18.5C52.7 18.5 62.5 28.3 62.5 40.5C62.5 52.7 52.7 62.5 40.5 62.5Z" fill="currentColor"/><path d="M40.5 42.5C45.5 42.5 49.5 38.5 49.5 33.5C49.5 28.5 45.5 24.5 40.5 24.5C35.5 24.5 31.5 28.5 31.5 33.5C31.5 38.5 35.5 42.5 40.5 42.5ZM40.5 29.5C42.7 29.5 44.5 31.3 44.5 33.5C44.5 35.7 42.7 37.5 40.5 37.5C38.3 37.5 36.5 35.7 36.5 33.5C36.5 31.3 38.3 29.5 40.5 29.5Z" fill="currentColor"/><path d="M52.5 55.5H28.5C27.4 55.5 26.5 54.6 26.5 53.5V51.5C26.5 47.1 30.1 43.5 34.5 43.5H46.5C50.9 43.5 54.5 47.1 54.5 51.5V53.5C54.5 54.6 53.6 55.5 52.5 55.5ZM31.5 50.5H49.5V51.5C49.5 49.3 47.7 47.5 45.5 47.5H35.5C33.3 47.5 31.5 49.3 31.5 51.5V50.5Z" fill="currentColor"/></svg>