<svg width="81" height="81" viewBox="0 0 81 81" fill="none" xmlns="http://www.w3.org/2000/svg"><path d="M40.5 12.5C25.5 12.5 13 25 13 40C13 55 25.5 67.5 40.5 67.5C55.5 67.5 68 55 68 40C68 25 55.5 12.5 40.5 12.5ZM40.5 62.5C28.3 62.5 18.5 52.7 18.5 40.5C18.5 28.3 28.3 18.5 40.5 18.5C52.7 18.5 62.5 28.3 62.5 40.5C62.5 52.7 52.7 62.5 40.5 62.5Z" fill="currentColor"/><path d="M40.5 48.5C42.7091 48.5 44.5 46.7091 44.5 44.5C44.5 42.2909 42.7091 40.5 40.5 40.5C38.2909 40.5 36.5 42.2909 36.5 44.5C36.5 46.7091 38.2909 48.5 40.5 48.5Z" fill="currentColor"/><path d="M40.5 21.5C34.5 21.5 29.5 26.5 29.5 32.5H34.5C34.5 29.2 37.2 26.5 40.5 26.5C43.8 26.5 46.5 29.2 46.5 32.5C46.5 35.8 43.8 38.5 40.5 38.5V41.5H45.5V36.5C49.8 35 52.5 31 52.5 32.5C52.5 26.5 47.5 21.5 40.5 21.5Z" fill="currentColor"/></svg>